<?xml version="1.0" standalone="yes"?>
<svg xmlns="http://www.w3.org/2000/svg" width="512" height="512">
<path style="fill:#ffffff; stroke:none;" d="M0 0L0 512L283 512L283 511C235.595 499.74 248.42 428.603 296 432.09C339.636 435.289 345.595 504.316 301 511L301 512L512 512L512 0L324 0L324 1C368.797 11.6453 354.76 76.0901 311 73.9599C269.916 71.96 267.446 10.1576 306 1L278 0L216 0L0 0z"/>
<path style="fill:#010101; stroke:none;" d="M306 0.517761C258.451 10.6622 276.553 83.4538 324 73.331C371.317 63.236 353.22 -9.55652 306 0.517761M252 160L253 160L252 198L249.914 223L231.667 251L196 305L179 332C157.098 323.981 140.582 302.198 118 295.789C95.5904 289.428 77.5532 314.112 88.4174 334C93.0393 342.461 103.237 346.939 111 352C126.575 362.153 142.302 372.092 158 382.053C168.427 388.67 177.95 395.482 191 392.471C205.292 389.173 214.073 371.736 222.424 361C245.527 331.301 274.252 301.59 293 269C310.351 287.851 325.248 309.699 340.881 330C347.435 338.511 358.908 348.812 362.411 359C365.641 368.392 364.225 381.11 365.17 391C367.46 414.968 369.406 438.983 371.09 463C372.506 483.217 376.054 506.002 402 503.907C420.609 502.404 424.361 485.321 423.985 470C423.08 433.06 417.495 395.877 414.91 359C411.794 314.529 369.584 286.353 353.086 247C347.58 233.868 353.347 211.016 353.961 197C354.718 179.701 355.562 162.288 355.985 145C356.207 135.959 354.935 124.468 358.649 116C361.424 109.673 367.36 104.4 371.576 99C380.62 87.415 389.555 75.7578 398.373 64C407.169 52.272 420.793 38.8383 425.867 25C429.011 16.4232 425.345 6.56131 417 2.57254C402.992 -4.12299 394.172 8.25262 386.873 18C375.88 32.6813 365.072 47.4672 353.881 62C349.201 68.0783 344.309 77.0531 337.91 81.3966C332.536 85.0453 324.024 82.0298 318 82.0008C301.902 81.9232 283.547 80.1672 268 85.2245C256.586 88.9375 249.083 103.779 242.424 113C226.41 135.178 209.86 157.267 192 178C184.313 186.923 169.665 195.62 171.189 209C172.904 224.059 189.786 227.657 201 220.451C215.017 211.445 225.546 194.869 235.801 182C241.306 175.091 248.391 168.1 252 160M285 432.465C232.726 441.873 249.042 520.904 301 511.535C351.722 502.39 335.562 423.365 285 432.465z"/>
</svg>
